<svg xmlns="http://www.w3.org/2000/svg" viewBox="0 0 36 48" fill="currentColor">
  <!-- Stylized sandhill crane silhouette -->
  <path d="M 11 10
           Q 11 7, 13.5 6.5
           L 16 6
           Q 17 4, 19 5
           L 20 6
           Q 21 7, 20 8
           L 17 9
           Q 17 10, 17.5 11
           L 19 14
           Q 22 17, 23 22
           Q 24 27, 22 31
           L 20.5 33
           L 21 36
           Q 21 38, 20 38.5
           L 19.5 39
           L 19.5 44
           L 21 45
           L 21 46.5
           L 17 46.5
           L 17 39
           L 14 38
           L 13 39.5
           L 13 44
           L 14.5 45
           L 14.5 46.5
           L 11 46.5
           L 11 38.5
           Q 10 36, 11 33
           L 11.5 30
           Q 9 26, 10 21
           Q 11 16, 13 13
           Q 11 12, 11 10 Z"
        opacity="0.92"/>
  <!-- Eye -->
  <circle cx="18" cy="7.5" r="0.5" fill="var(--gc-paper, #f1e8d2)"/>
</svg>
